<svg xmlns="http://www.w3.org/2000/svg" width="300" height="300" viewBox="0 0 49 49" shape-rendering="crispEdges"><path fill="#ffffff" d="M0 0h49v49H0z"/><path stroke="#000000" d="M4 4.5h7m1 0h4m3 0h2m1 0h5m1 0h2m2 0h1m3 0h1m1 0h7M4 5.5h1m5 0h1m1 0h1m9 0h1m4 0h4m3 0h1m3 0h1m5 0h1M4 6.5h1m1 0h3m1 0h1m1 0h1m5 0h3m2 0h4m2 0h1m1 0h2m2 0h2m1 0h1m1 0h3m1 0h1M4 7.5h1m1 0h3m1 0h1m4 0h2m3 0h2m2 0h2m1 0h2m1 0h1m1 0h1m1 0h1m3 0h1m1 0h3m1 0h1M4 8.5h1m1 0h3m1 0h1m3 0h3m2 0h1m1 0h1m3 0h1m3 0h1m3 0h1m1 0h2m1 0h1m1 0h3m1 0h1M4 9.5h1m5 0h1m1 0h1m1 0h1m6 0h2m1 0h3m2 0h1m1 0h1m1 0h1m2 0h1m1 0h1m5 0h1M4 10.5h7m1 0h1m1 0h1m1 0h1m1 0h1m1 0h1m1 0h1m1 0h1m1 0h1m1 0h1m1 0h1m1 0h1m1 0h1m1 0h1m1 0h7M12 11.5h3m2 0h1m1 0h1m1 0h2m1 0h6m2 0h1m3 0h1M6 12.5h3m1 0h1m1 0h2m2 0h3m1 0h1m4 0h2m1 0h2m1 0h1m1 0h1m1 0h1m1 0h3m2 0h3M5 13.5h1m3 0h1m3 0h1m3 0h1m1 0h1m5 0h1m2 0h2m2 0h1m1 0h3m1 0h1m1 0h1m1 0h1M4 14.5h2m4 0h1m1 0h2m2 0h1m1 0h1m2 0h2m4 0h5m5 0h1m2 0h1m2 0h2M7 15.5h1m5 0h1m3 0h3m1 0h1m2 0h1m3 0h1m1 0h2m4 0h1m3 0h2M4 16.5h1m4 0h2m1 0h1m1 0h1m4 0h1m1 0h6m1 0h2m2 0h2m1 0h1m1 0h1m1 0h1m1 0h2M4 17.5h3m2 0h1m1 0h1m2 0h1m3 0h2m1 0h1m3 0h2m1 0h2m1 0h1m2 0h1m1 0h1m3 0h2m2 0h1M4 18.5h1m4 0h3m1 0h1m11 0h1m4 0h3m1 0h2m1 0h2m1 0h1m2 0h1M6 19.5h1m1 0h1m3 0h1m3 0h1m2 0h3m4 0h1m2 0h3m2 0h5m1 0h1m3 0h1M8 20.5h1m1 0h1m3 0h1m1 0h1m2 0h1m3 0h2m1 0h3m1 0h2m3 0h3m1 0h1m1 0h3M4 21.5h2m2 0h1m2 0h1m1 0h2m2 0h1m1 0h1m1 0h1m1 0h2m2 0h1m3 0h1m1 0h1m1 0h1m1 0h2m1 0h1m1 0h1m1 0h1M7 22.5h2m1 0h2m3 0h2m4 0h2m2 0h1m2 0h1m3 0h2m2 0h2m2 0h2M5 23.5h2m5 0h5m2 0h1m7 0h1m1 0h1m1 0h5m1 0h1m2 0h2m2 0h1M4 24.5h1m2 0h4m1 0h4m3 0h2m1 0h1m5 0h5m2 0h1m1 0h1m2 0h1m1 0h2M4 25.5h6m2 0h2m2 0h1m2 0h2m1 0h5m2 0h1m4 0h3m1 0h2m2 0h3M4 26.5h1m5 0h1m1 0h6m1 0h7m1 0h1m1 0h1m1 0h4m1 0h1M4 27.5h1m1 0h1m2 0h1m4 0h2m1 0h2m2 0h1m10 0h1m2 0h3m1 0h1m1 0h2M4 28.5h2m2 0h1m1 0h2m2 0h1m2 0h2m4 0h1m4 0h1m4 0h1m1 0h1m3 0h3m1 0h1M5 29.5h3m3 0h1m3 0h1m2 0h1m1 0h2m1 0h2m1 0h5m1 0h5m1 0h1m1 0h2m1 0h1M4 30.5h2m1 0h1m1 0h3m2 0h3m4 0h1m2 0h1m2 0h2m1 0h2m1 0h1m2 0h1m1 0h3m3 0h1M4 31.5h1m1 0h2m4 0h2m3 0h4m1 0h2m4 0h5m1 0h8m1 0h1M4 32.5h1m2 0h1m2 0h7m1 0h4m2 0h1m1 0h1m1 0h3m2 0h1m1 0h2m1 0h2m1 0h3M4 33.5h2m3 0h1m3 0h5m5 0h2m3 0h1m2 0h2m4 0h1m2 0h1m1 0h1m1 0h1M4 34.5h1m2 0h5m6 0h2m1 0h1m3 0h1m1 0h4m5 0h1m1 0h2m2 0h2M4 35.5h1m1 0h1m4 0h3m3 0h2m2 0h3m6 0h1m1 0h3m3 0h1m1 0h1M4 36.5h1m1 0h1m1 0h4m3 0h2m3 0h2m1 0h3m1 0h1m1 0h1m2 0h1m3 0h9M12 37.5h2m1 0h1m2 0h1m1 0h5m2 0h1m1 0h1m1 0h1m3 0h2m3 0h2m2 0h1M4 38.5h7m4 0h2m3 0h2m1 0h1m2 0h1m4 0h1m2 0h1m1 0h1m1 0h1m1 0h2M4 39.5h1m5 0h1m2 0h1m1 0h3m1 0h5m2 0h3m1 0h2m4 0h1m3 0h2m2 0h1M4 40.5h1m1 0h3m1 0h1m1 0h2m4 0h2m1 0h1m3 0h5m1 0h1m2 0h1m1 0h5m1 0h1m1 0h1M4 41.5h1m1 0h3m1 0h1m1 0h1m4 0h1m1 0h1m4 0h1m3 0h2m6 0h2m1 0h1m1 0h1m1 0h2M4 42.5h1m1 0h3m1 0h1m1 0h2m1 0h1m1 0h1m1 0h6m1 0h4m1 0h2m1 0h2m1 0h4m2 0h1M4 43.5h1m5 0h1m2 0h2m3 0h1m1 0h3m1 0h4m2 0h3m3 0h2m2 0h1m2 0h1M4 44.5h7m2 0h1m1 0h1m1 0h5m2 0h1m2 0h1m1 0h3m1 0h1m3 0h1m1 0h2"/></svg>
